<?xml version="1.0" encoding="UTF-8" standalone="no"?>
<svg
   xmlns:dc="http://purl.org/dc/elements/1.1/"
   xmlns:cc="http://creativecommons.org/ns#"
   xmlns:rdf="http://www.w3.org/1999/02/22-rdf-syntax-ns#"
   xmlns:svg="http://www.w3.org/2000/svg"
   xmlns="http://www.w3.org/2000/svg"
   xmlns:sodipodi="http://sodipodi.sourceforge.net/DTD/sodipodi-0.dtd"
   xmlns:inkscape="http://www.inkscape.org/namespaces/inkscape"
   id="svg2"
   version="1.1"
   inkscape:version="1.0.1 (3bc2e813f5, 2020-09-07)"
   width="276.0351"
   height="274.25989"
   viewBox="0 0 276.0351 274.25989"
   sodipodi:docname="logo_MPCI.svg">
  <metadata
     id="metadata8">
    <rdf:RDF>
      <cc:Work
         rdf:about="">
        <dc:format>image/svg+xml</dc:format>
        <dc:type
           rdf:resource="http://purl.org/dc/dcmitype/StillImage" />
        <dc:title></dc:title>
      </cc:Work>
    </rdf:RDF>
  </metadata>
  <defs
     id="defs6" />
  <sodipodi:namedview
     pagecolor="#ffffff"
     bordercolor="#666666"
     borderopacity="1"
     objecttolerance="10"
     gridtolerance="10"
     guidetolerance="10"
     inkscape:pageopacity="0"
     inkscape:pageshadow="2"
     inkscape:window-width="1920"
     inkscape:window-height="1017"
     id="namedview4"
     showgrid="false"
     inkscape:zoom="0.42589404"
     inkscape:cx="-430.05503"
     inkscape:cy="-194.06292"
     inkscape:window-x="-8"
     inkscape:window-y="-8"
     inkscape:window-maximized="1"
     inkscape:current-layer="svg2"
     inkscape:document-rotation="0"
     showborder="false"
     fit-margin-top="0"
     fit-margin-left="0"
     fit-margin-right="0"
     fit-margin-bottom="0" />
  <path
     style="fill:#6d071a;fill-opacity:1;stroke:#000000;stroke-width:1px;stroke-linecap:butt;stroke-linejoin:miter;stroke-opacity:1"
     d="M 115.43211,268.11726 27.5173,220.78237 26.93944,203.31134 3.0173,185.08554 V 86.32957 l 20,-10.03647 2.98435,-22.7835 91.63914,-48.60908 18.60462,9.00839 24.06702,-10.56601 90.20488,50.71437 0.57505,18.25406 21.42495,16.8662 v 96.19736 l -18.5,9.92259 -4.5,26.13822 -92.72688,50.16641 -16.90606,-10.87993 z"
     id="path880" />
  <path
     style="fill:#ffffff;stroke:none"
     d="m 145.51731,268.6084 -11.00001,-5.59991 -8.69626,4.65142 c -4.78294,2.55829 -9.35317,4.65143 -10.15607,4.65143 h -1.45981 L 68.86123,247.88316 23.5173,223.45498 23.23687,212.03318 22.95643,200.61139 11.73687,194.55606 0.5173,188.50073 0.25865,135.62403 0,82.74731 11.00865,77.3156 22.0173,71.88389 V 61.32015 50.75642 L 67.14926,26.78387 C 91.97184,13.59898 113.54736,2.17878 115.09487,1.40566 L 117.90851,0 l 9.47741,5.65566 c 5.21257,3.11062 9.97022,5.65567 10.57256,5.65567 0.60233,0 5.57882,-2.25 11.05883,-5 5.48001,-2.75 10.46172,-5 11.07046,-5 0.60874,0 22.21692,11.29994 48.01817,25.11097 l 46.91137,25.11097 v 11.82219 11.82219 l 10.25,5.33601 10.25,5.336 0.25888,51.51274 0.25889,51.51273 -11.00889,5.43183 -11.00888,5.43182 v 12.10737 12.10738 l -48.05427,25.1789 c -26.42984,13.8484 -48.36734,25.15573 -48.75,25.12739 -0.38265,-0.0283 -5.64573,-2.57147 -11.69573,-5.65142 z m 58.5,-23.2718 45.5,-23.9009 0.24449,-59.81218 0.24449,-59.81218 -8.60162,-4.5 c -4.73089,-2.47501 -9.00341,-4.65001 -9.49449,-4.83334 l -0.89287,-0.33334 v 60.01002 60.01001 l -1.28723,0.32333 c -0.70798,0.17782 -21.21289,11.10327 -45.56647,24.27874 l -44.27924,23.95542 8.31647,4.24436 c 4.57406,2.33439 8.76647,4.25034 9.31647,4.25765 0.55,0.007 21.475,-10.7421 46.5,-23.88759 z m -18,-14.39697 41.5,-22.48652 0.28768,-9.69233 0.28767,-9.69233 -1.69691,0.65117 c -0.93331,0.35814 -26.65296,13.95562 -57.15479,30.21663 l -55.45788,29.56547 -4.63289,-2.49382 C 106.6021,245.63631 87.29995,235.24347 66.25651,223.91272 45.21308,212.58196 27.75806,203.31134 27.46758,203.31134 h -0.52814 l 0.28893,8.73552 0.28893,8.73551 43.95741,23.66745 43.9574,23.66744 14.5426,-7.34556 c 7.99842,-4.04006 33.2176,-17.46449 56.0426,-29.83207 z m -64.03697,9.33013 c 4.27264,-2.22288 8.54359,-4.60839 9.491,-5.30115 l 1.72256,-1.25957 -55.08751,-28.94885 -55.08751,-28.94885 -7.9e-4,-49.75912 -7.9e-4,-49.75912 -10,5.01823 -10,5.01824 v 49.37799 49.37798 l 54.75,29.53214 c 30.11251,16.24267 55.13129,29.56848 55.5973,29.6129 0.46602,0.0444 4.34311,-1.73795 8.61574,-3.96082 z m 60.65707,-32.33489 43.8799,-23.37646 0.25955,-47.39221 0.25956,-47.39221 -44.48089,-23.60162 -44.48089,-23.60162 -44.50902,23.62029 -44.50901,23.62029 -0.004,46.50001 -0.004,46.5 0.86518,1.36564 0.86517,1.36565 43.36952,22.84857 c 23.85323,12.56672 43.64856,22.86468 43.98961,22.88436 0.34106,0.0197 20.36607,-10.48363 44.50001,-23.34069 z m -54.62011,4.37647 v -1 h 1.77749 c 0.97763,0 2.77763,-0.70052 4,-1.5567 l 2.22251,-1.55671 v -23.32085 -23.32085 l -1.25,-0.98456 c -0.6875,-0.5415 -2.4875,-1.28018 -4,-1.64149 l -2.75,-0.65694 v -0.98095 -0.98095 h 15 15.00001 v 1.025 1.025 l -3.03552,0.6071 -3.03551,0.60711 -0.96449,1.80215 -0.96448,1.80216 v 22.50903 22.50904 l 2.22251,1.55671 c 1.22237,0.85618 3.02237,1.5567 4,1.5567 h 1.77749 v 1 1 h -15.00001 -15 z M 59.65678,170.61749 59.0173,169.97801 v -10.23566 -10.23566 l 18.25001,-7.70428 c 10.0375,-4.23736 18.85618,-8.03615 19.59707,-8.44176 l 1.34708,-0.73747 -15.84708,-6.78114 C 73.64849,122.11241 64.8298,118.20811 62.7673,117.1658 l -3.75,-1.89511 V 104.70768 94.14466 l 1.25,0.41584 1.25,0.41583 0.50982,2.91751 0.50982,2.9175 h 24.95276 24.95275 l 0.93208,-3.25 0.93209,-3.25001 h 0.85534 0.85534 v 14.00001 14 l -0.75,-0.0216 c -0.4125,-0.0119 -1.425,-1.47441 -2.25,-3.25 l -1.5,-3.2284 -22.49999,-0.24325 -22.50001,-0.24325 20.50001,8.49856 c 11.27499,4.6742 22.41249,9.39031 24.74999,10.48025 l 4.25,1.9817 v 0.89055 c 0,0.4898 -0.5625,1.321 -1.25,1.8471 -0.6875,0.52611 -11.26247,5.19371 -23.49992,10.37245 l -22.24993,9.41589 20.62257,0.27066 20.62256,0.27066 1.31308,-1.08976 1.31308,-1.08976 0.64374,-2.9309 0.64373,-2.9309 h 0.92055 0.92054 v 10 10 h -1 -1 v -1.77749 c 0,-0.97763 -0.70052,-2.77763 -1.5567,-4 l -1.55671,-2.22251 H 88.03203 65.16016 l -1.57143,1.57143 -1.57143,1.57143 v 1.86955 c 0,1.02826 -0.38723,2.10888 -0.86052,2.40139 l -0.86052,0.53183 z m 106.42335,-17.05615 -4.0928,-4.75 -1.48501,-4.9315 -1.48501,-4.9315 0.0119,-4.5685 0.0119,-4.5685 1.35876,-5.10268 1.35875,-5.10269 3.85113,-5.15843 3.85114,-5.15844 5.52824,-2.12624 5.52824,-2.12624 5.29341,-0.49007 5.29342,-0.49007 5.86742,1.24515 5.86742,1.24515 5.64862,4.65713 5.64861,4.65713 2.05169,4.47515 2.05168,4.47515 0.52334,6.75143 0.52333,6.75144 -2.25921,6.68835 -2.25921,6.68835 2.12474,1.72051 c 1.16861,0.94628 2.12474,2.21087 2.12474,2.81021 v 1.08971 h -10 -10 v -1.875 -1.875 l 2.75,-0.55566 2.75,-0.55565 4.12039,-3.53633 4.12039,-3.53633 1.62961,-3.43414 1.62961,-3.43415 v -3.23084 -3.23083 l -2.03771,-3.29708 -2.03771,-3.29709 -4.71229,-2.32095 -4.71235,-2.32095 h -13 -13 l -4.44888,2.5 -4.44888,2.5 -1.9165,3.28995 -1.91651,3.28995 v 4.77372 4.77371 l 2.0238,3.93634 2.0238,3.93633 3.0733,2.91957 3.0733,2.91957 -1.10416,1.33043 c -0.60729,0.73174 -1.46405,1.33043 -1.90391,1.33043 -0.43986,0 -2.64151,-2.1375 -4.89254,-4.75 z M 119.0173,117.55545 c 0,-0.41574 1.35,-1.35346 3,-2.08382 l 3,-1.32793 V 89.67549 65.20729 l -3,-1.0458 -3,-1.04581 v -0.9942 -0.9942 l 19.42852,0.34203 19.42852,0.34202 2.82149,2.05197 2.82148,2.05198 2.35983,4.70579 2.35984,4.70578 -0.64963,3.46281 -0.64962,3.4628 -2.66884,3.17173 -2.66884,3.17174 -4.04137,1.83574 -4.04137,1.83574 -6.75,0.022 -6.75001,0.022 v 11.05202 11.05202 l 3,1.0458 3.00001,1.04581 v 0.90218 0.90217 h -13.50001 -13.5 v -0.75589 z m 31.74845,-31.73805 2.25156,-2.6176 v -5.29501 -5.29501 l -1.0649,-3.05479 -1.06491,-3.05479 -2.84015,-1.17643 -2.84015,-1.17643 -2.34496,0.332 -2.34494,0.33199 -0.28187,12.38594 -0.28187,12.38595 4.28032,-0.57411 4.2803,-0.57411 z m 121.75156,51.45882 V 89.17753 l -55.5,-29.52479 -55.5,-29.52479 -9.19618,4.84169 -9.19619,4.84169 0.69619,0.69416 c 0.3829,0.38179 24.97311,13.54429 54.64492,29.25 29.67181,15.70571 54.30931,28.55585 54.75,28.55585 h 0.80126 v 48.49307 48.49307 l 9.25,-4.9613 9.25,-4.96129 z M 46.0173,121.97745 V 61.64355 L 89.76731,38.31817 c 24.06249,-12.82896 43.88281,-23.42403 44.04515,-23.5446 0.16233,-0.12057 -3.40988,-2.39133 -7.93826,-5.04613 l -8.23341,-4.82692 -7.56174,4.04342 c -4.15896,2.22389 -24.77777,13.16093 -45.81958,24.30454 l -38.25782,20.26112 0.25783,59.65087 0.25782,59.65087 9,4.71356 c 4.95,2.59245 9.3375,4.72995 9.75,4.75 l 0.75,0.0364 V 121.97741 Z M 164.99681,27.14467 c 1.93628,1.06901 21.83177,11.66883 44.21222,23.55516 22.38044,11.88632 40.95983,21.6115 41.28752,21.6115 h 0.59581 l -0.28752,-9.12703 -0.28753,-9.12703 -44.5,-23.86279 -44.5,-23.86279 -1.5,0.005 c -0.825,0.003 -7.62431,3.26078 -15.10958,7.23982 -7.48528,3.97904 -32.11445,17.13462 -54.73148,29.23462 l -41.1219,22 -0.0185,10.13865 -0.0185,10.13864 56.2295,-29.9438 56.22951,-29.9438 3.5205,1.94365 z"
     id="path4722"
     inkscape:connector-curvature="0" />
</svg>
